<?xml version="1.0" encoding="UTF-8" standalone="no"?>
<svg
   xmlns:dc="http://purl.org/dc/elements/1.1/"
   xmlns:cc="http://creativecommons.org/ns#"
   xmlns:rdf="http://www.w3.org/1999/02/22-rdf-syntax-ns#"
   xmlns:svg="http://www.w3.org/2000/svg"
   xmlns="http://www.w3.org/2000/svg"
   xmlns:sodipodi="http://sodipodi.sourceforge.net/DTD/sodipodi-0.dtd"
   xmlns:inkscape="http://www.inkscape.org/namespaces/inkscape"
   width="53.946342"
   height="54.959675"
   viewBox="0 0 53.946342 54.959677"
   id="svg4169"
   version="1.1"
   inkscape:version="0.91 r13725"
   sodipodi:docname="icon.svg">
  <sodipodi:namedview
     pagecolor="#ffffff"
     bordercolor="#666666"
     borderopacity="1"
     objecttolerance="10"
     gridtolerance="10"
     guidetolerance="10"
     inkscape:pageopacity="0"
     inkscape:pageshadow="2"
     inkscape:window-width="1621"
     inkscape:window-height="860"
     id="namedview4147"
     showgrid="false"
     inkscape:zoom="7.3690392"
     inkscape:cx="40.926782"
     inkscape:cy="29.119973"
     inkscape:window-x="0"
     inkscape:window-y="0"
     inkscape:window-maximized="0"
     inkscape:current-layer="svg4169" />
  <title
     id="title5421">YumJam Require Login Icon</title>
  <defs
     id="defs4171" />
  <metadata
     id="metadata4174">
    <rdf:RDF>
      <cc:Work
         rdf:about="">
        <dc:format>image/svg+xml</dc:format>
        <dc:type
           rdf:resource="http://purl.org/dc/dcmitype/StillImage" />
        <dc:title>YumJam Require Login Icon</dc:title>
      </cc:Work>
    </rdf:RDF>
  </metadata>
  <g
     transform="matrix(1.4715589,0,0,1.4715589,2.7489747,2.7014478)"
     style="fill:#9f0945;fill-opacity:1"
     id="g3686">
    <path
       style="fill:#9f0945;fill-opacity:1"
       id="path3682"
       d="m 8.673,4.791 15.654,0 c 0,0 1.508,-0.718 1.508,-2.09 0,-1.989 -1.855,-2.201 -2.842,-2.201 -0.985,0 -6.493,0 -6.493,0 0,0 -5.508,0 -6.493,0 -0.986,0 -2.842,0.212 -2.842,2.201 0,1.372 1.508,2.09 1.508,2.09 z" />
    <path
       style="fill:#9f0945;fill-opacity:1"
       id="path3684"
       d="m 24.998,5.864 -16.997,0 -1.504,2.407 c 2.5,0 2.5,1.856 5,1.856 2.5,0 2.5,-1.856 5,-1.856 2.502,0 2.502,1.856 5.004,1.856 2.502,0 2.502,-1.856 5.002,-1.856 L 24.998,5.864 Z" />
  </g>
  <path
     style="fill:#9c0945;fill-opacity:1"
     id="path3688"
     d="m 45.362378,40.798636 0,-7.084084 c 0,-7.17385 -0.286954,-10.362718 -3.072615,-13.894459 -0.741666,-0.94327 -1.345005,-1.911555 -1.843864,-2.86954 -2.194094,0.668087 -2.751815,2.538439 -5.858276,2.538439 -3.780434,0 -4.526515,-2.773889 -7.557926,-2.773889 -3.031412,0 -3.780435,2.773889 -7.56087,2.773889 -3.103518,0 -3.661239,-1.86888 -5.856805,-2.538439 -0.497386,0.956513 -1.100726,1.92627 -1.842391,2.86954 -2.7856612,3.531741 -3.0726152,6.720609 -3.0726152,13.894459 l 0,7.084084 c 0,2.199981 -0.6842749,9.728476 8.3628692,9.728476 l 9.969812,0 9.969811,0 c 9.045673,0 8.36287,-7.528495 8.36287,-9.728476 z" />
  <g
     transform="translate(14.686582,11.033089)"
     style="display:inline"
     id="layer2" />
  <g
     id="g4190"
     transform="matrix(0.05246504,0,0,0.05246504,13.412674,20.019713)">
    <g
       id="g4150">
      <path
         id="path4152"
         d="M 256,0 C 167.641,0 96,71.625 96,160 c 0,24.75 5.625,48.219 15.672,69.125 C 112.234,230.313 256,512 256,512 L 398.594,232.625 C 409.719,210.844 416,186.156 416,160 416,71.625 344.375,0 256,0 Z m 0,256 c -53.016,0 -96,-43 -96,-96 0,-53 42.984,-96 96,-96 53,0 96,43 96,96 0,53 -43,96 -96,96 z"
         inkscape:connector-curvature="0"
         style="fill:#ffffff" />
    </g>
    <g
       id="g4154" />
    <g
       id="g4156" />
    <g
       id="g4158" />
    <g
       id="g4160" />
    <g
       id="g4162" />
    <g
       id="g4164" />
    <g
       id="g4166" />
    <g
       id="g4168" />
    <g
       id="g4170" />
    <g
       id="g4172" />
    <g
       id="g4174" />
    <g
       id="g4176" />
    <g
       id="g4178" />
    <g
       id="g4180" />
    <g
       id="g4182" />
  </g>
</svg>
